<svg id="Capa_1" data-name="Capa 1" xmlns="http://www.w3.org/2000/svg" viewBox="0 0 29.44 29.44"><defs><style>.cls-1{fill:#fff;}</style></defs><path class="cls-1" d="M14.72,4.06c3.47,0,3.88,0,5.25.08a7,7,0,0,1,2.42.44,4,4,0,0,1,1.49,1,3.81,3.81,0,0,1,1,1.49,7.22,7.22,0,0,1,.45,2.42c.06,1.37.08,1.78.08,5.25s0,3.88-.08,5.25a7.22,7.22,0,0,1-.45,2.42,4.3,4.3,0,0,1-2.46,2.46A7.22,7.22,0,0,1,20,25.3c-1.37.07-1.78.08-5.25.08s-3.88,0-5.26-.08a7.21,7.21,0,0,1-2.41-.45,3.81,3.81,0,0,1-1.49-1,4,4,0,0,1-1-1.49A7,7,0,0,1,4.14,20c-.07-1.37-.08-1.78-.08-5.25s0-3.88.08-5.25a7,7,0,0,1,.44-2.42,4,4,0,0,1,1-1.49,4,4,0,0,1,1.49-1,7,7,0,0,1,2.41-.44c1.38-.07,1.79-.08,5.26-.08m0-2.34c-3.53,0-4,0-5.36.07A9.75,9.75,0,0,0,6.2,2.4,6.66,6.66,0,0,0,2.4,6.2a9.52,9.52,0,0,0-.6,3.16c-.07,1.39-.08,1.83-.08,5.36s0,4,.08,5.36a9.57,9.57,0,0,0,.6,3.16A6.66,6.66,0,0,0,6.2,27a9.52,9.52,0,0,0,3.16.6c1.38.07,1.83.08,5.36.08s4,0,5.36-.08a9.57,9.57,0,0,0,3.16-.6,6.66,6.66,0,0,0,3.8-3.8,9.57,9.57,0,0,0,.6-3.16c.07-1.39.08-1.83.08-5.36s0-4-.08-5.36A9.52,9.52,0,0,0,27,6.2a6.66,6.66,0,0,0-3.8-3.8,9.81,9.81,0,0,0-3.16-.61c-1.39-.06-1.83-.07-5.36-.07"/><path class="cls-1" d="M14.72,8a6.68,6.68,0,1,0,6.68,6.68A6.68,6.68,0,0,0,14.72,8m0,11a4.34,4.34,0,1,1,4.33-4.33,4.34,4.34,0,0,1-4.33,4.33"/><path class="cls-1" d="M23.22,7.78a1.56,1.56,0,1,1-1.56-1.56,1.56,1.56,0,0,1,1.56,1.56"/></svg>