<svg id="Capa_1" data-name="Capa 1" xmlns="http://www.w3.org/2000/svg" viewBox="0 0 31.63 25.71"><defs><style>.cls-1{fill:#fff;}</style></defs><path class="cls-1" d="M3.18,20.79A14.74,14.74,0,0,0,25.86,7.7,10.31,10.31,0,0,0,28.45,5a10.27,10.27,0,0,1-3,.81A5.14,5.14,0,0,0,27.75,3a10.17,10.17,0,0,1-3.29,1.26A5.19,5.19,0,0,0,15.63,9,14.7,14.7,0,0,1,4.94,3.53a5.2,5.2,0,0,0,1.61,6.93A5.19,5.19,0,0,1,4.2,9.81,5.18,5.18,0,0,0,8.36,15,5.28,5.28,0,0,1,6,15.05a5.21,5.21,0,0,0,4.85,3.6A10.44,10.44,0,0,1,3.18,20.79Z"/></svg>