<svg id="Capa_1" data-name="Capa 1" xmlns="http://www.w3.org/2000/svg" xmlns:xlink="http://www.w3.org/1999/xlink" viewBox="0 0 123.51 123.51"><defs><style>.cls-1{fill:none;}.cls-2{clip-path:url(#clip-path);}.cls-3{fill:#3b5998;}.cls-4{fill:#fff;}</style><clipPath id="clip-path"><rect class="cls-1" width="123.51" height="123.51"/></clipPath></defs><g class="cls-2"><path class="cls-3" d="M18.53,0H105a18.26,18.26,0,0,1,3.61.36,18.59,18.59,0,0,1,6.68,2.76,18.87,18.87,0,0,1,2.81,2.31,18.21,18.21,0,0,1,2.3,2.81,17.56,17.56,0,0,1,1.71,3.2,20,20,0,0,1,1.06,3.48,18.18,18.18,0,0,1,.35,3.61V105a18.25,18.25,0,0,1-.35,3.61,19.61,19.61,0,0,1-1.06,3.47,17.64,17.64,0,0,1-1.71,3.21,18.28,18.28,0,0,1-5.11,5.11,17.64,17.64,0,0,1-3.21,1.71,19.05,19.05,0,0,1-3.47,1.06,18.25,18.25,0,0,1-3.61.35H18.53a18.18,18.18,0,0,1-3.61-.35,18.91,18.91,0,0,1-3.48-1.06,17.24,17.24,0,0,1-3.2-1.71,18.21,18.21,0,0,1-2.81-2.3,18.87,18.87,0,0,1-2.31-2.81,18.28,18.28,0,0,1-1.71-3.21,18.79,18.79,0,0,1-1-3.47A18.26,18.26,0,0,1,0,105V18.53a18.19,18.19,0,0,1,.36-3.61,19.12,19.12,0,0,1,1-3.48,18.19,18.19,0,0,1,1.71-3.2A18.71,18.71,0,0,1,8.24,3.12a18.51,18.51,0,0,1,3.2-1.71,18.89,18.89,0,0,1,3.48-1A18.19,18.19,0,0,1,18.53,0Z"/></g><path class="cls-4" d="M69.24,110V37.88c0-5.07,1.45-8.45,8.44-8.45h9.16V14.24a109.43,109.43,0,0,0-13.26-.73c-13,0-22,8-22,22.67V110m34.5-61.27H36.67V66.1H84"/></svg>