<svg id="Capa_1" data-name="Capa 1" xmlns="http://www.w3.org/2000/svg" xmlns:xlink="http://www.w3.org/1999/xlink" viewBox="0 0 123.59 123.59"><defs><style>.cls-1{fill:none;}.cls-2{clip-path:url(#clip-path);}.cls-3{fill:#1d9bf0;}.cls-4{fill:#fff;}</style><clipPath id="clip-path"><rect class="cls-1" width="123.59" height="123.59"/></clipPath></defs><g class="cls-2"><path class="cls-3" d="M108.15,123.59H15.45A15.45,15.45,0,0,1,0,108.15V15.45A15.45,15.45,0,0,1,15.45,0h92.7a15.45,15.45,0,0,1,15.44,15.45v92.7A15.45,15.45,0,0,1,108.15,123.59Z"/></g><path class="cls-4" d="M47.46,93.19c29.13,0,45.08-24.17,45.08-45.08,0-.69,0-1.36,0-2a32.25,32.25,0,0,0,7.91-8.23,32,32,0,0,1-9.12,2.51,16,16,0,0,0,7-8.77A31.68,31.68,0,0,1,88.22,35.4,15.85,15.85,0,0,0,60.81,46.25a18.08,18.08,0,0,0,.39,3.62A45,45,0,0,1,28.54,33.3a15.94,15.94,0,0,0,4.92,21.17,16.06,16.06,0,0,1-7.17-2v.21A15.88,15.88,0,0,0,39,68.25a15.44,15.44,0,0,1-4.17.56,15.09,15.09,0,0,1-3-.28,15.82,15.82,0,0,0,14.79,11A32.17,32.17,0,0,1,23.2,86.12a45.18,45.18,0,0,0,24.26,7.07"/></svg>