<svg id="Capa_1" data-name="Capa 1" xmlns="http://www.w3.org/2000/svg" xmlns:xlink="http://www.w3.org/1999/xlink" viewBox="0 0 123.59 123.59"><defs><style>.cls-1{fill:none;}.cls-2{clip-path:url(#clip-path);}.cls-3{fill:#25d366;}.cls-4{fill:#fff;fill-rule:evenodd;}</style><clipPath id="clip-path"><rect class="cls-1" width="123.59" height="123.59"/></clipPath></defs><g class="cls-2"><path class="cls-3" d="M107.13,123.55H16.39A16.37,16.37,0,0,1,0,107.16V16.42A16.38,16.38,0,0,1,16.39,0h90.82a16.37,16.37,0,0,1,16.38,16.38v90.83A16.47,16.47,0,0,1,107.13,123.55Z"/></g><path class="cls-4" d="M91.4,30.51a41,41,0,0,0-70,29A40.39,40.39,0,0,0,26.93,80l-5.85,21.24,21.74-5.67a41,41,0,0,0,48.58-65ZM62.33,93.66A34,34,0,0,1,45,88.88l-1.24-.73L30.8,91.52l3.45-12.6-.82-1.32a34.13,34.13,0,0,1,28.9-52.2,34.13,34.13,0,0,1,0,68.26ZM81,68.06c-1-.5-6.09-3-7-3.38s-1.65-.49-2.31.49-2.63,3.38-3.21,4-1.23.74-2.22.24a26.64,26.64,0,0,1-8.24-5.1,30.85,30.85,0,0,1-5.68-7.08,1.48,1.48,0,0,1,.42-2.06c.49-.49,1-1.24,1.55-1.81a6,6,0,0,0,1-1.73,2,2,0,0,0-.08-1.82c-.25-.49-2.3-5.59-3.13-7.57s-1.65-1.73-2.3-1.73h-2a3.62,3.62,0,0,0-2.71,1.32,11.6,11.6,0,0,0-3.63,8.56c0,5,3.7,9.89,4.2,10.62s7.25,11,17.54,15.49c2.47,1.06,4.37,1.64,5.85,2.14a14.69,14.69,0,0,0,6.42.4c2-.33,6.09-2.46,6.91-4.85s.83-4.45.58-4.86S82.1,68.63,81,68.06Z"/></svg>